<svg id="Capa_1" enable-background="new 0 0 512 512" height="512" viewBox="0 0 512 512" width="512" xmlns="http://www.w3.org/2000/svg"><g><path d="m128.5 482h-15v30h135v-15h-120z"/><path d="m263.5 0v15h233.5v90h-60v-15c0-16.542-13.458-30-30-30h-113.5v354.5c0 20.678 16.822 37.5 37.5 37.5h52.5v45h-120v15h135v-75h-67.5c-12.407 0-22.5-10.093-22.5-22.5v-339.5h98.5c8.271 0 15 6.729 15 15v30h90v-120z"/><path d="m0 52.5h15v-37.5h233.5v-15h-248.5z"/><path d="m203.5 414.5c0 12.407-10.093 22.5-22.5 22.5h-67.5v30h15v-15h52.5c20.678 0 37.5-16.822 37.5-37.5v-354.5h-113.5c-16.542 0-30 13.458-30 30v15h-60v-37.5h-15v52.5h90v-30c0-8.271 6.729-15 15-15h98.5z"/><path d="m467 60h15v15h-15z"/><path d="m467 30h15v15h-15z"/><path d="m45 75h15v15h-15z"/><path d="m353.5 466.999h15v15h-15z"/><path d="m263.5 181h15v15h-15z"/><path d="m263.5 211h15v119.999h-15z"/></g></svg>