<svg id="Capa_1" enable-background="new 0 0 511.75 511.75" height="512" viewBox="0 0 511.75 511.75" width="512" xmlns="http://www.w3.org/2000/svg"><g><path d="m56.066 0v511.75h399.617v-511.75zm369.618 481.75h-339.618v-451.75h339.617v451.75z"/><path d="m384.779 60h-257.808v90h257.809v-90zm-30 60h-197.808v-30h197.809v30z"/><path d="m126.971 301.75h30v30h-30z"/><path d="m126.971 361.75h30v30h-30z"/><path d="m126.971 421.75h30v30h-30z"/><path d="m186.971 301.75h197.809v30h-197.809z"/><path d="m126.971 241.75h30v30h-30z"/><path d="m186.971 241.75h197.809v30h-197.809z"/><path d="m126.971 181.75h30v30h-30z"/><path d="m186.971 181.75h197.809v30h-197.809z"/><path d="m186.971 361.75h197.809v30h-197.809z"/><path d="m186.971 421.75h197.809v30h-197.809z"/></g></svg>